<svg xmlns="http://www.w3.org/2000/svg" viewBox="0 0 64 64" fill="none">
  <defs>
    <linearGradient id="bg" x1="0" y1="0" x2="64" y2="64" gradientUnits="userSpaceOnUse">
      <stop offset="0%" stop-color="#0f172a"/>
      <stop offset="100%" stop-color="#1e1b4b"/>
    </linearGradient>
    <linearGradient id="g1" x1="0" y1="0" x2="64" y2="64" gradientUnits="userSpaceOnUse">
      <stop offset="0%" stop-color="#818cf8"/>
      <stop offset="100%" stop-color="#22d3ee"/>
    </linearGradient>
  </defs>
  <rect width="64" height="64" rx="14" fill="url(#bg)"/>
  <circle cx="32" cy="32" r="24" fill="none" stroke="url(#g1)" stroke-width="2" opacity="0.3"/>
  <line x1="32" y1="10" x2="32" y2="54" stroke="url(#g1)" stroke-width="1.5" stroke-linecap="round" opacity="0.2"/>
  <line x1="10" y1="32" x2="54" y2="32" stroke="url(#g1)" stroke-width="1.5" stroke-linecap="round" opacity="0.2"/>
  <circle cx="32" cy="32" r="8" fill="none" stroke="url(#g1)" stroke-width="2"/>
  <circle cx="32" cy="32" r="4" fill="url(#g1)"/>
  <circle cx="32" cy="32" r="1.5" fill="#f0f4ff"/>
  <!-- Neural nodes -->
  <line x1="32" y1="24" x2="32" y2="16" stroke="url(#g1)" stroke-width="1.5" stroke-linecap="round"/>
  <circle cx="32" cy="15" r="2.5" fill="url(#g1)"/>
  <line x1="32" y1="40" x2="32" y2="48" stroke="url(#g1)" stroke-width="1.5" stroke-linecap="round"/>
  <circle cx="32" cy="49" r="2.5" fill="url(#g1)"/>
  <line x1="24" y1="32" x2="16" y2="32" stroke="url(#g1)" stroke-width="1.5" stroke-linecap="round"/>
  <circle cx="15" cy="32" r="2.5" fill="url(#g1)"/>
  <line x1="40" y1="32" x2="48" y2="32" stroke="url(#g1)" stroke-width="1.5" stroke-linecap="round"/>
  <circle cx="49" cy="32" r="2.5" fill="url(#g1)"/>
  <line x1="26.3" y1="26.3" x2="21" y2="21" stroke="#a78bfa" stroke-width="1.2" stroke-linecap="round"/>
  <circle cx="20" cy="20" r="2" fill="#a78bfa"/>
  <line x1="37.7" y1="26.3" x2="43" y2="21" stroke="#22d3ee" stroke-width="1.2" stroke-linecap="round"/>
  <circle cx="44" cy="20" r="2" fill="#22d3ee"/>
  <line x1="26.3" y1="37.7" x2="21" y2="43" stroke="#22d3ee" stroke-width="1.2" stroke-linecap="round"/>
  <circle cx="20" cy="44" r="2" fill="#22d3ee"/>
  <line x1="37.7" y1="37.7" x2="43" y2="43" stroke="#a78bfa" stroke-width="1.2" stroke-linecap="round"/>
  <circle cx="44" cy="44" r="2" fill="#a78bfa"/>
</svg>
